<svg width="702" height="1067" viewBox="0 0 702 1067"  xmlns="http://www.w3.org/2000/svg">
<path d="M581 0.377869C580.734 1.44454 577.873 16.7779 574.806 33.3112C571.739 49.8445 569.167 64.3333 568.5 65C567.5 65 563.5 65 563.5 65C563.5 65 564.539 59.8445 566.006 51.9779C567.206 45.9779 568.5 40.2667 568.5 40C568.5 40 562.539 39.9779 555.606 39.9779H543.206L542.406 45.5779C542.006 48.7779 540.939 54.5112 540.139 58.2445L538.539 65.3112H517.073H495.473L490.673 92.9112C488.006 108.245 486.494 118.589 486 121.5C492 121.5 501.8 122.333 521 123C540.067 123.533 556.406 123.845 556.939 124.245C557.606 125.045 546.539 207.445 543.206 226.245L542.539 230.645H571.206C599.873 230.645 599.873 230.645 600.539 227.578C600.939 225.978 603.739 209.045 606.673 189.978C609.739 170.911 612.734 150.645 613 148.911C618.5 148.911 614.167 148.911 627.5 148.911C635.234 148.911 636.5 148.911 641.473 148.911C642 146 644.467 130.133 645 128C642.5 128 644.406 127.978 631.606 127.978H616.5L617 124.5L617.473 121.311L653.739 121.045L690.139 120.645L694.406 96.6445C696.806 83.4445 699.073 70.6445 699.473 68.2445L700.273 63.9779H662.939H625.606L626.273 60.2445C628 50.5 636.267 0.777869 636 0.377869C635.867 0.244535 623 0.377869 608.406 0.377869C598 0.377869 586.5 0.377869 581 0.377869Z" />
<path d="M248.361 59.2388C185.695 65.2388 126.228 93.3721 81.428 138.172C39.028 180.705 13.9614 229.506 3.42804 290.439C-0.038624 310.972 0.228043 355.905 4.09471 377.105C9.42804 406.972 17.028 430.039 29.9614 455.772C79.1614 554.039 185.295 614.172 294.361 605.772C348.095 601.639 397.295 583.239 439.961 551.239C454.495 540.306 481.161 513.906 491.961 499.772C521.295 460.972 539.295 418.172 546.361 370.439C551.295 337.239 547.828 286.305 538.895 258.039L537.428 253.772H520.895C511.828 253.772 504.361 253.639 504.361 253.372C504.361 253.105 507.428 232.039 511.028 206.439C514.761 180.839 517.695 159.239 517.695 158.439C517.695 157.239 509.028 156.572 486.095 155.772C468.628 155.239 454.095 154.572 453.828 154.305C453.428 154.039 454.228 148.039 455.428 141.105L457.695 128.439L452.228 123.372C429.161 102.572 394.095 82.9722 359.828 71.7722C323.428 59.9055 285.828 55.6388 248.361 59.2388ZM311.561 73.1055C318.895 74.3055 329.561 76.1722 335.028 77.5055L345.028 79.9055L332.495 86.4388C321.161 92.3055 302.628 104.172 285.695 116.172L279.695 120.572L265.695 115.639C242.628 107.772 220.095 103.239 195.161 101.372C190.761 101.105 190.361 100.705 188.228 93.5055L185.961 85.7722L196.228 82.5721C223.161 74.1721 242.361 71.3722 273.561 71.2388C289.295 71.1055 302.895 71.7721 311.561 73.1055ZM366.495 90.3055C368.361 95.2388 355.428 120.572 340.761 140.706L334.228 149.639L326.361 144.572C321.961 141.772 312.761 136.705 305.961 133.239C299.161 129.772 293.961 126.439 294.361 125.772C294.761 125.105 302.761 119.505 312.095 113.372C341.828 93.6388 364.095 84.1721 366.495 90.3055ZM173.695 91.5055C173.695 91.7722 170.628 94.5722 167.028 97.6388C161.695 102.172 158.228 103.772 150.228 105.772C144.628 107.105 140.628 107.639 141.295 106.972C142.628 105.639 171.295 91.1055 172.761 91.1055C173.295 91.1055 173.695 91.3722 173.695 91.5055ZM394.895 99.7722C409.561 107.505 430.628 121.239 439.695 128.972L445.028 133.505L441.961 152.572C440.228 163.106 437.628 176.472 437.362 177.939C446.862 178.439 446.263 178.305 449.362 178.439C460.292 178.913 462.228 179.105 473.295 179.239C484.495 179.239 493.961 179.772 494.228 180.172C494.495 180.705 492.095 199.372 488.895 221.772C485.695 244.172 483.028 263.239 483.028 264.306C483.028 265.772 486.761 265.905 503.695 265.372C515.862 265.372 512.862 265.439 517.362 265.439C518.48 265.439 517.362 266.439 515.362 268.939C512.862 272.939 515.028 269.239 507.695 280.972C499.561 294.306 482.361 318.306 480.628 318.706C479.161 319.106 466.895 292.306 467.028 288.706C467.028 286.039 466.361 285.772 459.695 285.772C454.361 285.772 452.361 285.239 452.361 283.905C452.361 282.972 454.495 267.639 457.028 249.772C459.561 231.905 461.695 216.572 461.695 215.639C461.695 214.172 459.028 213.772 449.961 213.772C443.428 213.772 432.628 213.372 425.828 212.839L413.561 212.039L414.495 206.172L415.295 200.439H401.862C401.428 201.439 401.695 201.105 401.428 201.905C400.895 203.372 384.361 189.105 384.361 187.239C384.361 185.905 412.095 168.839 425.428 161.772C436.228 156.172 437.028 155.505 437.961 150.439C438.628 147.505 438.895 144.305 438.761 143.372C438.228 140.705 407.828 156.306 389.028 168.839L374.361 178.572L360.095 167.772C352.228 161.905 345.828 156.705 345.828 156.039C345.695 155.505 348.628 150.972 352.361 145.905C363.295 130.972 373.161 113.105 376.495 102.439C378.228 96.9721 379.961 92.4388 380.361 92.4388C380.761 92.4388 387.295 95.7722 394.895 99.7722ZM227.695 113.905C241.828 116.705 254.228 120.172 264.895 124.172L271.295 126.706L260.895 135.239C255.028 139.905 243.561 149.239 235.295 156.172C227.161 162.972 219.961 168.439 219.295 168.172C218.761 167.905 212.228 163.905 204.628 159.372C189.161 149.639 190.095 151.906 193.028 131.105C194.228 123.372 194.761 115.372 194.228 113.372L193.428 109.505L203.828 110.439C209.695 110.972 220.361 112.572 227.695 113.905ZM149.695 121.905C146.628 127.905 145.028 129.772 143.295 129.239C142.095 128.839 138.095 127.905 134.361 127.105C123.428 124.572 123.295 124.439 127.695 122.039C131.961 119.772 149.295 113.905 152.095 113.772C153.161 113.772 152.228 116.705 149.695 121.905ZM299.561 139.239C316.095 147.505 328.361 154.972 328.361 156.439C328.361 159.105 281.828 213.772 279.561 213.772C279.161 213.772 271.828 208.172 263.295 201.372C250.495 191.239 242.761 185.239 231.028 176.706C230.361 176.172 230.761 175.905 260.895 151.372C273.828 140.972 284.761 132.439 285.295 132.439C285.695 132.439 292.228 135.505 299.561 139.239ZM133.695 139.505C137.161 140.572 139.561 142.039 139.295 142.972C139.161 143.906 136.628 149.505 133.828 155.505C126.761 170.705 112.495 200.705 107.561 211.105L103.295 219.772L100.361 213.105C91.028 191.772 85.9614 167.905 88.2281 156.039C89.5614 148.839 95.428 141.505 102.361 138.305C107.161 136.039 124.228 136.705 133.695 139.505ZM356.761 175.505C362.495 179.905 366.628 183.906 366.095 184.439C365.561 184.972 358.095 190.439 349.695 196.839C341.295 203.106 327.161 214.172 318.361 221.505L302.361 234.706L296.095 229.239C292.495 226.172 289.695 223.505 289.695 223.105C289.695 222.705 296.361 214.972 304.361 205.772C312.495 196.572 323.695 183.239 329.428 176.172C341.295 161.239 338.361 161.372 356.761 175.505ZM172.361 171.772C179.828 175.905 186.361 178.839 186.761 178.572C187.161 178.172 187.695 174.839 188.095 171.105C188.361 167.505 189.028 164.439 189.295 164.439C189.828 164.439 208.361 176.172 209.561 177.239C209.828 177.505 205.695 181.772 200.228 186.706C194.761 191.639 185.161 200.706 178.895 206.706C172.628 212.839 166.895 217.772 166.228 217.772C165.561 217.772 157.961 225.105 149.161 234.039C140.495 243.105 134.895 248.439 136.761 246.172C140.095 241.906 140.095 241.772 138.228 234.439C137.161 230.306 136.628 226.439 137.028 225.772C137.561 224.972 140.095 223.239 142.761 221.772C145.428 220.305 149.695 217.505 152.228 215.372L156.628 211.639L154.228 204.039C151.961 196.839 151.561 196.439 147.695 196.439C145.295 196.439 140.628 196.039 137.295 195.639C130.495 194.705 130.628 194.839 129.028 179.639C128.095 171.639 128.228 171.372 131.561 170.572C133.561 170.039 136.361 170.305 137.828 171.105C139.961 172.305 142.095 171.772 148.761 168.572C153.295 166.439 157.428 164.572 157.828 164.572C158.228 164.439 164.761 167.772 172.361 171.772ZM76.8947 180.439C78.628 192.706 86.4947 213.772 97.2947 235.105C103.295 247.239 108.361 257.772 108.361 258.706C108.361 259.506 106.228 265.639 103.695 272.306C100.361 281.372 97.8281 285.506 94.0947 288.972C91.2947 291.506 86.6281 297.639 83.6947 302.439C80.8947 307.372 76.8947 313.506 74.7614 316.039L71.028 320.706L69.828 317.372C64.4947 303.505 58.8947 275.105 57.028 253.772C55.2947 231.905 60.7614 199.639 69.6947 179.772C74.2281 169.639 75.2947 169.772 76.8947 180.439ZM231.561 192.706C236.761 196.439 247.695 204.972 255.961 211.505L270.895 223.505L263.295 232.172C259.161 236.972 243.161 253.105 227.695 268.039C198.495 296.439 198.095 296.705 197.828 287.105C197.695 285.239 196.495 282.972 195.028 282.039C192.895 280.706 192.361 278.972 192.361 272.706C192.361 268.439 193.295 261.639 194.495 257.772L196.628 250.572L193.295 247.639C191.428 246.039 189.161 244.439 188.228 244.172C187.028 243.772 187.028 242.972 188.228 240.706C189.428 238.439 191.028 237.772 195.028 237.772C200.361 237.772 200.361 237.772 200.361 232.572C200.361 225.106 196.895 221.506 189.028 220.572L182.628 219.772L201.161 202.839C211.428 193.506 220.228 185.772 220.895 185.772C221.561 185.772 226.361 188.839 231.561 192.706ZM55.6947 193.239C50.8947 207.372 49.028 220.972 49.1614 243.772C49.1614 269.772 51.828 286.972 59.6947 312.839L64.628 328.572L55.2947 340.839C42.4947 357.906 32.8947 372.439 26.3614 384.706L20.7614 395.239L19.2947 389.506C11.828 359.372 11.1614 316.306 17.6947 282.706C21.1614 265.106 28.228 242.305 35.6947 225.505C41.428 212.572 56.0947 186.439 57.028 187.372C57.2947 187.639 56.7614 190.305 55.6947 193.239ZM386.895 201.372C391.961 206.039 396.495 209.772 396.895 209.772C397.295 209.772 396.895 209.772 397.862 210.439C399.295 210.894 397.848 210.429 398.862 210.939C399.795 210.939 399.028 210.839 399.362 210.939C398.962 213.339 398.095 219.106 397.161 224.706L395.428 235.105H405.561C414.361 235.105 437.961 236.439 438.628 236.972C438.761 237.106 436.761 251.239 434.361 268.439C431.828 285.639 429.695 300.306 429.695 300.839C429.695 301.372 436.895 301.506 445.695 300.972L461.561 300.039L467.828 312.972C473.028 323.639 473.828 326.306 472.628 328.839C471.161 332.039 443.828 363.905 434.095 374.039L427.961 380.306L418.495 366.706C405.561 348.306 402.628 344.439 401.695 344.439C399.961 344.439 402.095 353.372 405.961 361.506C409.561 369.106 412.361 380.706 412.361 388.039C412.361 390.839 411.828 391.105 404.495 391.105H396.761L395.028 384.972L393.295 378.839L385.828 379.772C381.028 380.306 374.761 379.906 367.961 378.439C358.095 376.439 357.295 376.439 348.495 379.105C340.761 381.372 338.495 382.706 334.628 387.639C324.228 400.306 316.095 398.839 307.695 382.972C304.895 377.639 301.161 371.772 299.295 369.906C296.628 367.372 296.228 365.772 296.761 361.772C297.161 358.839 296.495 353.905 295.028 349.772L292.628 342.839L297.961 338.039C302.361 334.172 303.161 332.572 302.495 329.639C301.961 326.972 302.628 325.372 305.028 323.105C309.961 318.439 308.095 318.439 299.428 322.972C286.495 329.906 273.828 340.306 268.628 348.172C264.095 354.839 263.695 356.439 263.695 364.706V373.906L257.695 377.639L251.695 381.506L235.828 380.706L220.095 379.772L208.761 367.906L197.295 355.906L200.895 352.839C202.895 351.106 205.428 349.772 206.495 349.772C208.095 349.772 208.361 348.839 207.695 345.906C206.895 342.439 208.495 340.439 229.295 319.772C251.961 297.105 280.095 270.439 294.095 258.572L301.695 252.172L306.495 256.306C309.161 258.706 320.361 270.039 331.428 281.505C342.628 292.972 352.095 302.306 352.761 302.039C353.961 301.639 353.961 304.706 352.628 306.439C350.495 309.506 326.761 325.772 324.495 325.772C323.161 325.772 321.028 324.572 319.695 323.105C316.495 319.505 313.428 319.772 309.695 323.772C307.028 326.572 306.761 327.639 308.095 330.306C309.428 333.239 309.028 334.039 303.695 338.706L297.828 343.906L299.828 350.439C300.895 354.039 301.561 358.839 301.428 361.105C301.295 363.905 302.361 366.839 304.628 369.906C306.495 372.439 309.561 377.506 311.561 381.372C315.428 389.106 319.295 392.439 323.161 391.506C324.628 391.106 328.361 387.906 331.428 384.439C336.361 378.972 338.628 377.639 347.161 375.105C356.228 372.305 357.695 372.172 365.695 373.906C375.295 375.772 383.961 376.039 391.161 374.706C395.828 373.772 395.828 373.772 397.828 380.039C399.428 384.972 400.495 386.572 402.895 386.839C404.628 387.106 406.495 386.839 407.028 386.172C408.895 384.306 406.095 371.639 401.961 362.839C399.828 358.172 397.561 352.172 397.161 349.372L396.228 344.439H388.895H381.428L382.228 339.372C383.295 332.972 387.028 301.639 387.028 299.639C387.028 298.705 382.495 297.772 374.895 297.239L362.761 296.306L352.628 285.372C347.028 279.372 335.561 267.372 327.028 258.706C313.961 245.239 311.961 242.705 313.828 241.372C314.895 240.439 322.095 234.572 329.828 228.306C348.495 212.839 375.428 192.439 376.628 192.839C377.161 192.972 381.828 196.839 386.895 201.372ZM286.895 237.772L292.761 243.105L286.228 248.839C272.495 260.706 246.895 284.705 223.428 307.639L199.028 331.372V322.439V313.505L239.428 273.239C261.561 251.105 279.961 232.839 280.361 232.706C280.761 232.706 283.695 234.972 286.895 237.772ZM156.361 253.372C157.028 256.172 158.495 261.239 159.561 264.572L161.428 270.839L150.495 274.972C144.495 277.239 139.161 279.105 138.761 279.105C138.228 279.105 136.495 277.239 134.895 274.972L131.961 270.839L143.161 259.639C149.295 253.505 154.495 248.439 154.628 248.439C154.761 248.439 155.561 250.705 156.361 253.372ZM532.628 286.572C536.361 307.506 536.761 354.039 533.295 373.772C527.961 404.172 518.228 432.839 504.761 457.106C500.628 464.439 496.495 471.639 495.428 473.106L493.428 475.772L494.361 473.106C506.095 439.772 504.628 391.239 490.361 347.239L485.828 333.372L498.361 316.572C505.295 307.372 515.028 292.972 519.961 284.839C524.761 276.572 529.028 270.039 529.295 270.172C529.428 270.439 531.028 277.772 532.628 286.572ZM483.561 353.506C490.228 375.372 492.495 389.106 493.295 413.106C494.228 443.906 491.161 461.239 480.895 484.039L477.428 491.772L475.561 481.639C474.628 476.039 471.695 465.506 469.028 458.306C466.495 450.972 464.361 444.039 464.361 442.839C464.361 441.639 463.828 440.439 463.161 440.172C462.495 439.906 458.495 432.839 454.095 424.439C449.695 416.039 443.695 405.106 440.761 400.306L435.295 391.506L451.295 373.639C460.095 363.772 469.695 352.706 472.761 348.839C475.828 344.972 478.761 341.905 479.161 341.772C479.561 341.772 481.561 346.972 483.561 353.506ZM86.2281 374.972C88.8947 379.239 91.028 383.106 91.028 383.506C91.028 384.439 63.828 401.772 62.3614 401.772C60.628 401.772 62.7614 380.039 64.628 378.972C65.5614 378.439 69.6947 375.639 73.6947 372.706C77.6947 369.772 81.1614 367.239 81.2947 367.239C81.428 367.106 83.6947 370.572 86.2281 374.972ZM203.028 380.039C211.428 389.106 213.695 392.572 213.428 395.105C213.028 398.705 212.361 398.839 199.561 396.306C193.695 395.239 192.495 394.439 190.628 390.306C189.428 387.772 188.361 383.639 188.361 381.239C188.361 375.106 189.828 368.439 191.028 368.439C191.695 368.439 197.028 373.639 203.028 380.039ZM100.228 377.372C98.8947 378.839 98.3614 378.706 96.8947 376.839C94.228 373.239 94.628 372.306 98.3614 374.039C100.895 375.239 101.295 375.906 100.228 377.372ZM272.895 384.172L277.028 388.706L267.695 397.239C262.628 402.039 256.761 407.106 254.895 408.439L251.428 410.972L242.495 402.839C232.628 393.906 232.628 393.239 243.295 391.772C249.028 390.972 250.361 390.039 257.161 382.306C264.761 373.772 264.761 373.772 266.761 376.706C267.828 378.439 270.628 381.772 272.895 384.172ZM42.4947 396.439L42.3614 411.106L37.9614 412.439C31.428 414.172 29.428 412.972 30.3614 407.906C31.1614 404.172 41.2947 381.772 42.0947 381.772C42.3614 381.772 42.4947 388.439 42.4947 396.439ZM417.961 391.372C415.961 393.372 415.428 392.706 414.361 386.439L413.561 381.105L416.495 385.506C418.628 388.839 419.028 390.306 417.961 391.372ZM115.561 388.706C116.495 391.106 118.361 396.039 119.561 399.506C120.895 402.972 123.295 407.506 125.028 409.506C127.695 412.572 127.828 413.506 126.361 415.506C124.761 417.639 124.361 417.506 120.761 412.839C114.761 405.106 105.695 391.372 105.695 390.039C105.695 388.706 110.895 384.572 112.761 384.572C113.295 384.439 114.628 386.439 115.561 388.706ZM108.761 410.039L119.161 424.839L112.895 433.639C94.0947 460.439 83.9614 478.306 78.8947 493.639L75.9614 502.306L70.7614 496.439C59.828 483.639 43.1614 456.439 34.4947 436.439C30.0947 426.706 30.0947 426.439 32.8947 426.039C34.3614 425.906 39.428 424.706 44.0947 423.639C52.3614 421.506 52.4947 421.506 55.6947 424.439L58.8947 427.506L59.828 422.039C60.4947 417.906 61.428 416.306 64.228 415.106C66.228 414.306 74.3614 409.506 82.3614 404.439C90.4947 399.372 97.2947 395.239 97.6947 395.239C98.0947 395.239 103.028 401.905 108.761 410.039ZM431.428 409.372C433.961 413.639 438.628 421.772 441.695 427.372L447.295 437.772H443.428C439.961 437.772 438.761 436.439 431.028 422.839C420.628 404.972 421.028 406.172 423.028 403.772C425.561 400.706 426.495 401.239 431.428 409.372ZM233.561 411.639L241.961 420.172L226.228 433.106C210.361 445.906 183.561 466.572 178.228 469.772C175.561 471.372 174.628 470.839 166.361 463.639C161.428 459.372 151.828 449.506 144.895 441.906C132.628 428.306 132.495 428.039 134.761 424.972C136.895 422.172 137.695 422.039 147.695 422.706C153.561 422.972 161.828 424.172 166.095 425.239C175.295 427.506 175.028 427.372 175.028 425.906C175.028 425.239 175.695 422.972 176.361 421.106L177.695 417.639L181.161 420.306C183.161 421.906 186.628 423.106 189.028 423.106C194.628 423.106 207.161 416.706 216.361 409.106C220.361 405.772 223.961 403.106 224.361 403.106C224.761 403.106 228.895 406.972 233.561 411.639ZM285.028 406.306L289.028 409.639L279.695 418.972L270.361 428.306L265.695 424.306L261.028 420.439L270.361 411.772C275.561 407.106 279.961 403.106 280.361 403.106C280.761 403.106 282.895 404.572 285.028 406.306ZM362.228 418.039C371.828 423.239 379.961 427.772 380.361 428.172C381.028 428.706 362.628 446.706 342.095 465.506L329.961 476.439L315.561 465.506C307.561 459.506 296.361 450.706 290.761 446.039L280.361 437.372L285.561 431.239C294.495 420.706 295.295 420.306 318.761 414.306C331.028 411.239 341.828 408.706 342.895 408.572C343.828 408.439 352.495 412.706 362.228 418.039ZM256.761 433.239L261.828 437.906L252.228 448.839C241.161 461.506 218.628 488.439 213.561 494.972L210.228 499.506L197.961 490.439C191.161 485.372 185.695 480.972 185.695 480.572C185.695 480.172 189.028 477.506 193.161 474.572C202.628 468.039 245.828 433.639 248.228 430.706C250.628 427.639 250.895 427.772 256.761 433.239ZM155.961 464.972L168.361 476.706L165.295 478.972C163.695 480.306 155.828 485.372 147.828 490.439C120.361 507.506 95.828 516.972 90.3614 512.439C83.9614 507.106 95.5614 480.572 118.628 447.372L127.295 434.839L135.428 443.906C139.961 448.972 149.161 458.439 155.961 464.972ZM408.495 442.439C425.161 450.439 440.228 454.572 448.361 453.239L453.561 452.439L456.361 460.039C461.695 474.172 464.361 487.106 464.361 498.706V509.906L458.228 516.439C454.895 520.039 449.961 523.639 447.428 524.572C432.361 529.506 392.895 516.306 358.361 494.706C338.628 482.439 339.428 484.839 351.695 473.506C357.561 468.172 369.028 457.372 377.161 449.506C385.428 441.506 392.361 435.106 392.761 435.106C393.028 435.106 400.228 438.439 408.495 442.439ZM283.428 456.172C289.428 461.239 300.228 469.639 307.295 474.972L320.228 484.706L314.361 489.772C305.295 497.639 281.961 516.572 272.495 523.772L263.961 530.306L250.495 523.372C235.428 515.772 221.695 507.372 221.695 505.906C221.695 503.506 269.295 447.239 271.428 447.106C272.095 447.106 277.428 451.239 283.428 456.172ZM186.495 492.039C190.895 495.639 196.628 499.906 199.428 501.772C202.095 503.639 204.361 505.506 204.361 505.906C204.361 506.439 199.828 513.639 194.228 521.906C181.961 540.172 173.828 556.706 172.761 565.772C172.361 569.372 171.428 572.439 170.761 572.439C170.095 572.439 163.428 569.372 155.961 565.506C140.361 557.506 119.428 543.772 107.428 533.639L99.028 526.572L110.628 522.839C125.028 518.172 141.561 509.506 161.561 496.172C170.095 490.572 177.428 485.906 177.828 485.906C178.228 485.772 182.095 488.572 186.495 492.039ZM337.695 496.439C364.761 514.706 398.761 530.972 418.361 535.239C422.761 536.039 426.895 537.239 427.428 537.772C427.961 538.306 424.895 540.306 420.361 542.172C400.361 550.972 372.495 554.839 347.161 552.439C328.495 550.706 305.295 545.639 289.428 539.906L277.695 535.772L294.628 522.172C304.095 514.706 315.961 504.972 321.028 500.572C326.228 496.039 330.628 492.439 331.028 492.439C331.428 492.439 334.361 494.306 337.695 496.439ZM224.495 518.572C228.761 521.106 237.695 526.172 244.495 529.639L256.628 536.039L239.428 547.506C219.295 560.972 198.895 571.106 190.361 572.039C184.895 572.706 184.361 572.572 184.361 570.039C184.361 565.239 189.428 553.239 196.228 542.039C203.428 530.039 214.761 513.772 215.961 513.772C216.361 513.772 220.228 515.906 224.495 518.572ZM287.961 548.172C329.295 562.172 372.095 565.239 403.695 556.572C416.361 552.972 412.761 556.039 391.961 566.306C363.695 580.039 339.428 587.639 309.028 591.772C291.161 594.306 248.895 593.906 234.361 591.239C217.561 588.039 201.695 584.172 201.695 583.372C201.695 582.839 205.828 580.706 210.761 578.439C221.961 573.506 242.761 560.839 257.695 550.039C263.961 545.639 269.695 542.039 270.361 542.306C271.161 542.572 279.028 545.239 287.961 548.172Z" />
<path d="M419.867 186.133C418 196.8 416.933 205.733 417.333 206C417.867 206.267 429.2 206.667 442.4 206.667C455.733 206.8 466.667 207.067 466.667 207.2C466.667 207.467 464.267 224.267 461.333 244.667C458.4 265.067 456 282 456 282.4C456 282.667 475.5 283 475.5 283C475.5 283 489 283 497 283C498 276 498 274.5 499 268C496 268 497.2 268 488.4 267.733L477.733 267.333L483.733 225.6C486.933 202.667 489.333 183.6 489.2 183.333C488.933 183.067 476 182.4 460.533 181.867L432.4 180.933L435 167C432 167 435.267 167 429 167H423L419.867 186.133Z" />
<path d="M381.467 245.6C380.667 250.267 379.734 256.533 379.2 259.6L378.267 265.333L393.867 265.467C413.467 265.733 412.534 265.6 413.067 268.267C413.334 269.467 412 281.067 410.134 294.133C408.267 307.067 406.667 318.267 406.667 318.933C406.667 320.533 433.067 319.467 434.667 317.867C435.2 317.2 436.134 313.867 436.534 310.267L437.467 304H431.334H425.2L426 299.6C427.467 290.8 434.534 240.667 434.267 240.4C434 240.267 424.534 240 412.934 239.867C401.467 239.733 392 239.067 392 238.533C392 237.867 390 237.333 387.467 237.333C382.934 237.333 382.934 237.333 381.467 245.6Z" />
<path d="M364 278.933C363.2 284.267 362.4 289.6 362.267 290.667C362 292.267 364.533 292.667 376.4 293.067C393.2 293.467 391.867 290.933 388 316.667C386.533 326.133 385.333 334.933 385.333 336C385.333 337.6 387.333 337.867 396.933 337.6C403.333 337.333 408.8 337.067 408.8 336.933C408.933 336.8 409.467 333.867 410 330.267L410.933 324H406.8C401.733 324 401.733 324.8 405.333 297.333C406.8 286 408 275.067 408 272.933V269.333H386.8H365.6L364 278.933Z" />
<path d="M330.667 309.467C323.733 311.733 317.6 314 317.067 314.4C316.533 314.933 318.133 316.667 320.667 318.267L325.067 321.2L336.133 313.333C342.133 308.933 346.267 305.333 345.2 305.333C344.133 305.467 337.6 307.333 330.667 309.467Z" />
<path d="M466.533 98.9332C466 100.267 457.6 148.667 457.867 148.933C458 149.2 472.667 149.733 490.533 150.133L522.8 151.067L522.133 154.533C520.933 160 509.333 243.467 509.333 245.867C509.333 247.867 512 248 534.933 247.733L560.667 247.333L561.467 242.267L562.267 237.333H549.067H535.867L536.667 232.933C538 224.933 551 131.633 551 129.5C549 129.5 546.533 129.6 515.733 128.667C496.4 128.133 480.4 127.467 480.133 127.2C480.5 124.5 483 105 484 98.9332C482 98.9999 484.034 98.9332 475.5 98.9332C470.7 98.9332 475.5 98.9999 466.533 98.9332Z" />
<path d="M422.667 581.333C380.533 586 349.467 598.267 322.4 621.067C288 650 266 695.333 257.733 754.667C254.667 777.2 254.667 824.667 257.867 848.4C267.333 921.2 289.6 966.8 338.533 1013.6C356.4 1030.8 372.4 1042.27 391.333 1051.33C416 1063.33 437.6 1067.33 458.667 1064.13C520.533 1054.4 566.133 991.2 599.867 868.267C601.333 863.067 602.267 858.667 602.133 858.667C601.867 858.667 596.4 865.733 589.867 874.267C575.2 893.733 553.467 916.267 539.333 926.933C520.4 941.333 497.067 950.667 480 950.667C429.467 950.667 384.667 894.8 361.333 802.667C348.533 752.133 347.067 692 357.867 660C362.133 647.467 366.8 640 374.133 633.467C380.8 627.6 386.8 625.333 395.467 625.333C419.2 625.333 452.667 651.867 489.867 700.4C499.733 713.2 499.867 713.467 501.733 710.4C505.067 705.2 561.067 603.467 562 601.067C562.667 599.333 561.333 598.533 555.733 596.8C542.933 592.933 506.267 585.467 490 583.333C469.867 580.667 437.467 579.733 422.667 581.333Z" />
<path d="M172.667 633.6C172.267 634.533 161.333 676.133 148.133 726C112.667 860.4 102.933 897.2 102 900.133C101.2 902.667 102.533 902.667 177.867 902.667C220.133 902.667 254.667 902.4 254.667 902.133C254.667 901.733 253.467 896.533 252 890.4C235.867 821.467 238.667 747.6 259.333 693.2C268.8 668.533 279.2 651.467 292.4 638.933L299.867 632H236.533C187.067 632 173.067 632.4 172.667 633.6Z" />
</svg>
